<?xml version="1.0" encoding="UTF-8"?>
<svg xmlns="http://www.w3.org/2000/svg" xmlns:xlink="http://www.w3.org/1999/xlink" width="504pt" height="360pt" viewBox="0 0 504 360">
<defs>
<g>
<g id="glyph-0-0">
<path d="M 6.171875 -2.6875 C 6.171875 -1.820312 5.910156 -1.132812 5.390625 -0.625 C 4.878906 -0.125 4.160156 0.125 3.234375 0.125 C 2.472656 0.125 1.851562 -0.0390625 1.375 -0.375 C 0.90625 -0.71875 0.609375 -1.207031 0.484375 -1.84375 L 1.546875 -1.96875 C 1.765625 -1.15625 2.335938 -0.75 3.265625 -0.75 C 3.828125 -0.75 4.269531 -0.914062 4.59375 -1.25 C 4.914062 -1.59375 5.078125 -2.066406 5.078125 -2.671875 C 5.078125 -3.191406 4.914062 -3.609375 4.59375 -3.921875 C 4.269531 -4.242188 3.832031 -4.40625 3.28125 -4.40625 C 3 -4.40625 2.734375 -4.359375 2.484375 -4.265625 C 2.242188 -4.179688 2 -4.03125 1.75 -3.8125 L 0.71875 -3.8125 L 1 -8.25 L 5.6875 -8.25 L 5.6875 -7.359375 L 1.953125 -7.359375 L 1.796875 -4.734375 C 2.253906 -5.085938 2.820312 -5.265625 3.5 -5.265625 C 4.3125 -5.265625 4.957031 -5.023438 5.4375 -4.546875 C 5.925781 -4.078125 6.171875 -3.457031 6.171875 -2.6875 Z M 6.171875 -2.6875 "/>
</g>
<g id="glyph-0-1">
<path d="M 0.921875 0 L 0.921875 -0.890625 L 3.015625 -0.890625 L 3.015625 -7.25 L 1.15625 -5.921875 L 1.15625 -6.921875 L 3.109375 -8.25 L 4.078125 -8.25 L 4.078125 -0.890625 L 6.09375 -0.890625 L 6.09375 0 Z M 0.921875 0 "/>
</g>
<g id="glyph-0-2">
<path d="M 6.203125 -4.125 C 6.203125 -2.75 5.957031 -1.695312 5.46875 -0.96875 C 4.988281 -0.238281 4.273438 0.125 3.328125 0.125 C 2.378906 0.125 1.664062 -0.234375 1.1875 -0.953125 C 0.707031 -1.679688 0.46875 -2.738281 0.46875 -4.125 C 0.46875 -5.550781 0.695312 -6.613281 1.15625 -7.3125 C 1.625 -8.019531 2.359375 -8.375 3.359375 -8.375 C 4.328125 -8.375 5.039062 -8.015625 5.5 -7.296875 C 5.96875 -6.585938 6.203125 -5.53125 6.203125 -4.125 Z M 5.140625 -4.125 C 5.140625 -5.320312 5 -6.1875 4.71875 -6.71875 C 4.445312 -7.257812 3.992188 -7.53125 3.359375 -7.53125 C 2.710938 -7.53125 2.242188 -7.265625 1.953125 -6.734375 C 1.671875 -6.203125 1.53125 -5.332031 1.53125 -4.125 C 1.53125 -2.957031 1.671875 -2.101562 1.953125 -1.5625 C 2.242188 -1.019531 2.703125 -0.75 3.328125 -0.75 C 3.953125 -0.75 4.410156 -1.023438 4.703125 -1.578125 C 4.992188 -2.128906 5.140625 -2.976562 5.140625 -4.125 Z M 5.140625 -4.125 "/>
</g>
<g id="glyph-0-3">
<path d="M 0.609375 0 L 0.609375 -0.75 C 0.804688 -1.207031 1.046875 -1.609375 1.328125 -1.953125 C 1.617188 -2.304688 1.921875 -2.625 2.234375 -2.90625 C 2.554688 -3.1875 2.867188 -3.445312 3.171875 -3.6875 C 3.484375 -3.9375 3.765625 -4.179688 4.015625 -4.421875 C 4.265625 -4.660156 4.46875 -4.910156 4.625 -5.171875 C 4.78125 -5.441406 4.859375 -5.742188 4.859375 -6.078125 C 4.859375 -6.535156 4.722656 -6.890625 4.453125 -7.140625 C 4.191406 -7.390625 3.828125 -7.515625 3.359375 -7.515625 C 2.898438 -7.515625 2.523438 -7.390625 2.234375 -7.140625 C 1.953125 -6.898438 1.785156 -6.5625 1.734375 -6.125 L 0.65625 -6.21875 C 0.726562 -6.875 1.003906 -7.394531 1.484375 -7.78125 C 1.972656 -8.175781 2.597656 -8.375 3.359375 -8.375 C 4.179688 -8.375 4.816406 -8.175781 5.265625 -7.78125 C 5.710938 -7.394531 5.9375 -6.84375 5.9375 -6.125 C 5.9375 -5.800781 5.863281 -5.476562 5.71875 -5.15625 C 5.570312 -4.84375 5.351562 -4.523438 5.0625 -4.203125 C 4.78125 -3.890625 4.226562 -3.40625 3.40625 -2.75 C 2.957031 -2.375 2.597656 -2.039062 2.328125 -1.75 C 2.066406 -1.457031 1.878906 -1.171875 1.765625 -0.890625 L 6.078125 -0.890625 L 6.078125 0 Z M 0.609375 0 "/>
</g>
<g id="glyph-0-4">
<path d="M 7.375 -2.328125 C 7.375 -1.585938 7.101562 -1.015625 6.5625 -0.609375 C 6.03125 -0.203125 5.289062 0 4.34375 0 L 0.984375 0 L 0.984375 -8.25 L 3.984375 -8.25 C 5.921875 -8.25 6.890625 -7.582031 6.890625 -6.25 C 6.890625 -5.757812 6.753906 -5.347656 6.484375 -5.015625 C 6.210938 -4.691406 5.828125 -4.472656 5.328125 -4.359375 C 5.984375 -4.273438 6.488281 -4.050781 6.84375 -3.6875 C 7.195312 -3.332031 7.375 -2.878906 7.375 -2.328125 Z M 5.765625 -6.125 C 5.765625 -6.5625 5.613281 -6.875 5.3125 -7.0625 C 5.007812 -7.257812 4.566406 -7.359375 3.984375 -7.359375 L 2.109375 -7.359375 L 2.109375 -4.75 L 3.984375 -4.75 C 4.578125 -4.75 5.019531 -4.859375 5.3125 -5.078125 C 5.613281 -5.304688 5.765625 -5.65625 5.765625 -6.125 Z M 6.234375 -2.421875 C 6.234375 -3.390625 5.550781 -3.875 4.1875 -3.875 L 2.109375 -3.875 L 2.109375 -0.890625 L 4.28125 -0.890625 C 4.957031 -0.890625 5.453125 -1.015625 5.765625 -1.265625 C 6.078125 -1.523438 6.234375 -1.910156 6.234375 -2.421875 Z M 6.234375 -2.421875 "/>
</g>
<g id="glyph-0-5">
<path d="M 6.171875 -3.171875 C 6.171875 -2.066406 5.925781 -1.238281 5.4375 -0.6875 C 4.945312 -0.144531 4.238281 0.125 3.3125 0.125 C 2.382812 0.125 1.679688 -0.15625 1.203125 -0.71875 C 0.734375 -1.289062 0.5 -2.109375 0.5 -3.171875 C 0.5 -5.359375 1.445312 -6.453125 3.34375 -6.453125 C 4.3125 -6.453125 5.023438 -6.1875 5.484375 -5.65625 C 5.941406 -5.125 6.171875 -4.296875 6.171875 -3.171875 Z M 5.0625 -3.171875 C 5.0625 -4.046875 4.929688 -4.679688 4.671875 -5.078125 C 4.410156 -5.472656 3.972656 -5.671875 3.359375 -5.671875 C 2.742188 -5.671875 2.296875 -5.46875 2.015625 -5.0625 C 1.742188 -4.664062 1.609375 -4.035156 1.609375 -3.171875 C 1.609375 -2.335938 1.742188 -1.707031 2.015625 -1.28125 C 2.285156 -0.863281 2.710938 -0.65625 3.296875 -0.65625 C 3.929688 -0.65625 4.382812 -0.859375 4.65625 -1.265625 C 4.925781 -1.671875 5.0625 -2.304688 5.0625 -3.171875 Z M 5.0625 -3.171875 "/>
</g>
<g id="glyph-0-6">
<path d="M 5.5625 -1.75 C 5.5625 -1.15625 5.335938 -0.691406 4.890625 -0.359375 C 4.441406 -0.0351562 3.8125 0.125 3 0.125 C 2.207031 0.125 1.597656 -0.00390625 1.171875 -0.265625 C 0.742188 -0.523438 0.460938 -0.929688 0.328125 -1.484375 L 1.265625 -1.671875 C 1.359375 -1.328125 1.546875 -1.078125 1.828125 -0.921875 C 2.109375 -0.765625 2.5 -0.6875 3 -0.6875 C 3.53125 -0.6875 3.921875 -0.765625 4.171875 -0.921875 C 4.421875 -1.085938 4.546875 -1.335938 4.546875 -1.671875 C 4.546875 -1.921875 4.457031 -2.125 4.28125 -2.28125 C 4.113281 -2.4375 3.835938 -2.566406 3.453125 -2.671875 L 2.703125 -2.859375 C 2.085938 -3.015625 1.648438 -3.164062 1.390625 -3.3125 C 1.140625 -3.46875 0.941406 -3.65625 0.796875 -3.875 C 0.660156 -4.09375 0.59375 -4.359375 0.59375 -4.671875 C 0.59375 -5.242188 0.796875 -5.679688 1.203125 -5.984375 C 1.617188 -6.285156 2.21875 -6.4375 3 -6.4375 C 3.707031 -6.4375 4.265625 -6.3125 4.671875 -6.0625 C 5.085938 -5.820312 5.347656 -5.429688 5.453125 -4.890625 L 4.5 -4.765625 C 4.445312 -5.046875 4.289062 -5.257812 4.03125 -5.40625 C 3.78125 -5.5625 3.4375 -5.640625 3 -5.640625 C 2.53125 -5.640625 2.179688 -5.566406 1.953125 -5.421875 C 1.722656 -5.273438 1.609375 -5.054688 1.609375 -4.765625 C 1.609375 -4.585938 1.65625 -4.441406 1.75 -4.328125 C 1.84375 -4.210938 1.976562 -4.113281 2.15625 -4.03125 C 2.34375 -3.945312 2.734375 -3.832031 3.328125 -3.6875 C 3.890625 -3.539062 4.289062 -3.410156 4.53125 -3.296875 C 4.78125 -3.179688 4.972656 -3.050781 5.109375 -2.90625 C 5.253906 -2.757812 5.363281 -2.585938 5.4375 -2.390625 C 5.519531 -2.203125 5.5625 -1.988281 5.5625 -1.75 Z M 5.5625 -1.75 "/>
</g>
<g id="glyph-0-7">
<path d="M 3.25 -0.046875 C 2.894531 0.046875 2.539062 0.09375 2.1875 0.09375 C 1.34375 0.09375 0.921875 -0.382812 0.921875 -1.34375 L 0.921875 -5.578125 L 0.1875 -5.578125 L 0.1875 -6.34375 L 0.953125 -6.34375 L 1.265625 -7.765625 L 1.96875 -7.765625 L 1.96875 -6.34375 L 3.140625 -6.34375 L 3.140625 -5.578125 L 1.96875 -5.578125 L 1.96875 -1.578125 C 1.96875 -1.265625 2.015625 -1.046875 2.109375 -0.921875 C 2.210938 -0.804688 2.390625 -0.75 2.640625 -0.75 C 2.773438 -0.75 2.976562 -0.773438 3.25 -0.828125 Z M 3.25 -0.046875 "/>
</g>
<g id="glyph-0-8">
<path d="M 0.796875 -7.6875 L 0.796875 -8.703125 L 1.859375 -8.703125 L 1.859375 -7.6875 Z M 0.796875 0 L 0.796875 -6.34375 L 1.859375 -6.34375 L 1.859375 0 Z M 0.796875 0 "/>
</g>
<g id="glyph-0-9">
<path d="M 4.828125 0 L 4.828125 -4.015625 C 4.828125 -4.429688 4.785156 -4.753906 4.703125 -4.984375 C 4.628906 -5.222656 4.5 -5.390625 4.3125 -5.484375 C 4.132812 -5.585938 3.875 -5.640625 3.53125 -5.640625 C 3.019531 -5.640625 2.617188 -5.460938 2.328125 -5.109375 C 2.035156 -4.765625 1.890625 -4.285156 1.890625 -3.671875 L 1.890625 0 L 0.828125 0 L 0.828125 -4.984375 C 0.828125 -5.722656 0.816406 -6.175781 0.796875 -6.34375 L 1.796875 -6.34375 C 1.796875 -6.320312 1.796875 -6.265625 1.796875 -6.171875 C 1.804688 -6.085938 1.8125 -5.988281 1.8125 -5.875 C 1.820312 -5.769531 1.832031 -5.5625 1.84375 -5.25 L 1.859375 -5.25 C 2.097656 -5.6875 2.375 -5.992188 2.6875 -6.171875 C 3.007812 -6.359375 3.410156 -6.453125 3.890625 -6.453125 C 4.578125 -6.453125 5.082031 -6.28125 5.40625 -5.9375 C 5.726562 -5.59375 5.890625 -5.019531 5.890625 -4.21875 L 5.890625 0 Z M 4.828125 0 "/>
</g>
<g id="glyph-0-10">
<path d="M 3.21875 2.484375 C 2.519531 2.484375 1.960938 2.347656 1.546875 2.078125 C 1.140625 1.804688 0.878906 1.421875 0.765625 0.921875 L 1.828125 0.78125 C 1.898438 1.070312 2.054688 1.296875 2.296875 1.453125 C 2.535156 1.609375 2.847656 1.6875 3.234375 1.6875 C 4.285156 1.6875 4.8125 1.070312 4.8125 -0.15625 L 4.8125 -1.171875 C 4.601562 -0.765625 4.328125 -0.457031 3.984375 -0.25 C 3.640625 -0.0507812 3.234375 0.046875 2.765625 0.046875 C 1.984375 0.046875 1.410156 -0.207031 1.046875 -0.71875 C 0.679688 -1.238281 0.5 -2.050781 0.5 -3.15625 C 0.5 -4.28125 0.695312 -5.109375 1.09375 -5.640625 C 1.488281 -6.171875 2.085938 -6.4375 2.890625 -6.4375 C 3.335938 -6.4375 3.722656 -6.332031 4.046875 -6.125 C 4.378906 -5.925781 4.632812 -5.632812 4.8125 -5.25 L 4.828125 -5.25 C 4.828125 -5.375 4.832031 -5.578125 4.84375 -5.859375 C 4.863281 -6.148438 4.882812 -6.3125 4.90625 -6.34375 L 5.90625 -6.34375 C 5.875 -6.132812 5.859375 -5.695312 5.859375 -5.03125 L 5.859375 -0.1875 C 5.859375 1.59375 4.976562 2.484375 3.21875 2.484375 Z M 4.8125 -3.171875 C 4.8125 -3.679688 4.738281 -4.125 4.59375 -4.5 C 4.457031 -4.875 4.257812 -5.160156 4 -5.359375 C 3.75 -5.554688 3.460938 -5.65625 3.140625 -5.65625 C 2.597656 -5.65625 2.203125 -5.457031 1.953125 -5.0625 C 1.710938 -4.675781 1.59375 -4.046875 1.59375 -3.171875 C 1.59375 -2.304688 1.707031 -1.679688 1.9375 -1.296875 C 2.164062 -0.921875 2.5625 -0.734375 3.125 -0.734375 C 3.457031 -0.734375 3.75 -0.828125 4 -1.015625 C 4.257812 -1.210938 4.457031 -1.492188 4.59375 -1.859375 C 4.738281 -2.234375 4.8125 -2.671875 4.8125 -3.171875 Z M 4.8125 -3.171875 "/>
</g>
<g id="glyph-0-11">
</g>
<g id="glyph-0-12">
<path d="M 0.828125 0 L 0.828125 -4.859375 C 0.828125 -5.304688 0.816406 -5.800781 0.796875 -6.34375 L 1.796875 -6.34375 C 1.828125 -5.625 1.84375 -5.191406 1.84375 -5.046875 L 1.859375 -5.046875 C 2.023438 -5.585938 2.21875 -5.957031 2.4375 -6.15625 C 2.65625 -6.351562 2.96875 -6.453125 3.375 -6.453125 C 3.507812 -6.453125 3.648438 -6.4375 3.796875 -6.40625 L 3.796875 -5.4375 C 3.660156 -5.46875 3.472656 -5.484375 3.234375 -5.484375 C 2.796875 -5.484375 2.460938 -5.296875 2.234375 -4.921875 C 2.003906 -4.546875 1.890625 -4.007812 1.890625 -3.3125 L 1.890625 0 Z M 0.828125 0 "/>
</g>
<g id="glyph-0-13">
<path d="M 1.84375 -6.34375 L 1.84375 -2.328125 C 1.84375 -1.898438 1.882812 -1.570312 1.96875 -1.34375 C 2.050781 -1.113281 2.179688 -0.945312 2.359375 -0.84375 C 2.535156 -0.75 2.796875 -0.703125 3.140625 -0.703125 C 3.648438 -0.703125 4.050781 -0.875 4.34375 -1.21875 C 4.632812 -1.5625 4.78125 -2.046875 4.78125 -2.671875 L 4.78125 -6.34375 L 5.84375 -6.34375 L 5.84375 -1.359375 C 5.84375 -0.617188 5.851562 -0.164062 5.875 0 L 4.875 0 C 4.875 -0.0195312 4.867188 -0.0703125 4.859375 -0.15625 C 4.859375 -0.238281 4.851562 -0.335938 4.84375 -0.453125 C 4.84375 -0.566406 4.835938 -0.773438 4.828125 -1.078125 L 4.8125 -1.078125 C 4.570312 -0.640625 4.289062 -0.328125 3.96875 -0.140625 C 3.65625 0.0351562 3.265625 0.125 2.796875 0.125 C 2.097656 0.125 1.585938 -0.046875 1.265625 -0.390625 C 0.941406 -0.742188 0.78125 -1.316406 0.78125 -2.109375 L 0.78125 -6.34375 Z M 1.84375 -6.34375 "/>
</g>
<g id="glyph-0-14">
<path d="M 4.8125 -1.015625 C 4.613281 -0.609375 4.351562 -0.316406 4.03125 -0.140625 C 3.707031 0.0351562 3.3125 0.125 2.84375 0.125 C 2.039062 0.125 1.445312 -0.144531 1.0625 -0.6875 C 0.6875 -1.226562 0.5 -2.046875 0.5 -3.140625 C 0.5 -5.347656 1.28125 -6.453125 2.84375 -6.453125 C 3.320312 -6.453125 3.71875 -6.363281 4.03125 -6.1875 C 4.351562 -6.019531 4.613281 -5.742188 4.8125 -5.359375 L 4.828125 -5.359375 L 4.8125 -6.0625 L 4.8125 -8.703125 L 5.859375 -8.703125 L 5.859375 -1.3125 C 5.859375 -0.644531 5.875 -0.207031 5.90625 0 L 4.890625 0 C 4.878906 -0.0625 4.863281 -0.207031 4.84375 -0.4375 C 4.832031 -0.664062 4.828125 -0.859375 4.828125 -1.015625 Z M 1.609375 -3.171875 C 1.609375 -2.285156 1.722656 -1.648438 1.953125 -1.265625 C 2.191406 -0.890625 2.578125 -0.703125 3.109375 -0.703125 C 3.703125 -0.703125 4.132812 -0.90625 4.40625 -1.3125 C 4.675781 -1.726562 4.8125 -2.375 4.8125 -3.25 C 4.8125 -4.082031 4.675781 -4.691406 4.40625 -5.078125 C 4.132812 -5.472656 3.707031 -5.671875 3.125 -5.671875 C 2.59375 -5.671875 2.207031 -5.472656 1.96875 -5.078125 C 1.726562 -4.691406 1.609375 -4.054688 1.609375 -3.171875 Z M 1.609375 -3.171875 "/>
</g>
<g id="glyph-0-15">
<path d="M 4.21875 -7.34375 L 4.21875 0 L 3.109375 0 L 3.109375 -7.34375 L 0.265625 -7.34375 L 0.265625 -8.25 L 7.0625 -8.25 L 7.0625 -7.34375 Z M 4.21875 -7.34375 "/>
</g>
<g id="glyph-0-16">
<path d="M 2.421875 0.125 C 1.785156 0.125 1.304688 -0.0390625 0.984375 -0.375 C 0.671875 -0.71875 0.515625 -1.179688 0.515625 -1.765625 C 0.515625 -2.421875 0.726562 -2.925781 1.15625 -3.28125 C 1.59375 -3.632812 2.289062 -3.820312 3.25 -3.84375 L 4.671875 -3.875 L 4.671875 -4.21875 C 4.671875 -4.726562 4.5625 -5.09375 4.34375 -5.3125 C 4.125 -5.539062 3.78125 -5.65625 3.3125 -5.65625 C 2.84375 -5.65625 2.5 -5.570312 2.28125 -5.40625 C 2.0625 -5.25 1.929688 -4.992188 1.890625 -4.640625 L 0.796875 -4.75 C 0.972656 -5.882812 1.816406 -6.453125 3.328125 -6.453125 C 4.128906 -6.453125 4.726562 -6.269531 5.125 -5.90625 C 5.53125 -5.539062 5.734375 -5.015625 5.734375 -4.328125 L 5.734375 -1.59375 C 5.734375 -1.28125 5.773438 -1.046875 5.859375 -0.890625 C 5.941406 -0.734375 6.097656 -0.65625 6.328125 -0.65625 C 6.429688 -0.65625 6.546875 -0.664062 6.671875 -0.6875 L 6.671875 -0.03125 C 6.410156 0.03125 6.140625 0.0625 5.859375 0.0625 C 5.472656 0.0625 5.1875 -0.0390625 5 -0.25 C 4.820312 -0.457031 4.722656 -0.78125 4.703125 -1.21875 L 4.671875 -1.21875 C 4.398438 -0.726562 4.082031 -0.378906 3.71875 -0.171875 C 3.363281 0.0234375 2.929688 0.125 2.421875 0.125 Z M 2.671875 -0.671875 C 3.054688 -0.671875 3.398438 -0.757812 3.703125 -0.9375 C 4.003906 -1.113281 4.238281 -1.351562 4.40625 -1.65625 C 4.582031 -1.96875 4.671875 -2.285156 4.671875 -2.609375 L 4.671875 -3.125 L 3.515625 -3.109375 C 3.015625 -3.097656 2.632812 -3.046875 2.375 -2.953125 C 2.125 -2.859375 1.929688 -2.710938 1.796875 -2.515625 C 1.660156 -2.328125 1.59375 -2.070312 1.59375 -1.75 C 1.59375 -1.40625 1.6875 -1.140625 1.875 -0.953125 C 2.0625 -0.765625 2.328125 -0.671875 2.671875 -0.671875 Z M 2.671875 -0.671875 "/>
</g>
<g id="glyph-0-17">
<path d="M 6.84375 0 L 5.890625 -2.421875 L 2.140625 -2.421875 L 1.1875 0 L 0.03125 0 L 3.390625 -8.25 L 4.671875 -8.25 L 7.984375 0 Z M 4.015625 -7.40625 L 3.96875 -7.25 C 3.863281 -6.925781 3.71875 -6.507812 3.53125 -6 L 2.46875 -3.28125 L 5.5625 -3.28125 L 4.5 -6.015625 C 4.394531 -6.285156 4.285156 -6.585938 4.171875 -6.921875 Z M 4.015625 -7.40625 "/>
</g>
<g id="glyph-0-18">
<path d="M 4.28125 0.125 C 3.601562 0.125 3.015625 0 2.515625 -0.25 C 2.015625 -0.5 1.625 -0.859375 1.34375 -1.328125 C 1.0625 -1.796875 0.921875 -2.351562 0.921875 -3 L 0.921875 -8.25 L 2.046875 -8.25 L 2.046875 -3.09375 C 2.046875 -2.34375 2.234375 -1.769531 2.609375 -1.375 C 2.992188 -0.988281 3.550781 -0.796875 4.28125 -0.796875 C 5.019531 -0.796875 5.59375 -0.992188 6 -1.390625 C 6.414062 -1.796875 6.625 -2.390625 6.625 -3.171875 L 6.625 -8.25 L 7.734375 -8.25 L 7.734375 -3.109375 C 7.734375 -2.441406 7.59375 -1.863281 7.3125 -1.375 C 7.03125 -0.894531 6.628906 -0.523438 6.109375 -0.265625 C 5.597656 -0.00390625 4.988281 0.125 4.28125 0.125 Z M 4.28125 0.125 "/>
</g>
<g id="glyph-0-19">
<path d="M 4.640625 -7.46875 C 3.722656 -7.46875 3.007812 -7.171875 2.5 -6.578125 C 2 -5.992188 1.75 -5.191406 1.75 -4.171875 C 1.75 -3.160156 2.007812 -2.34375 2.53125 -1.71875 C 3.0625 -1.101562 3.78125 -0.796875 4.6875 -0.796875 C 5.84375 -0.796875 6.710938 -1.367188 7.296875 -2.515625 L 8.203125 -2.0625 C 7.867188 -1.351562 7.394531 -0.8125 6.78125 -0.4375 C 6.164062 -0.0625 5.453125 0.125 4.640625 0.125 C 3.804688 0.125 3.082031 -0.046875 2.46875 -0.390625 C 1.863281 -0.742188 1.398438 -1.238281 1.078125 -1.875 C 0.765625 -2.519531 0.609375 -3.285156 0.609375 -4.171875 C 0.609375 -5.484375 0.960938 -6.507812 1.671875 -7.25 C 2.390625 -8 3.375 -8.375 4.625 -8.375 C 5.507812 -8.375 6.242188 -8.203125 6.828125 -7.859375 C 7.421875 -7.515625 7.859375 -7.003906 8.140625 -6.328125 L 7.078125 -5.984375 C 6.878906 -6.460938 6.566406 -6.828125 6.140625 -7.078125 C 5.722656 -7.335938 5.222656 -7.46875 4.640625 -7.46875 Z M 4.640625 -7.46875 "/>
</g>
<g id="glyph-0-20">
<path d="M 4.578125 0 L 3.421875 0 L 0.046875 -8.25 L 1.234375 -8.25 L 3.515625 -2.4375 L 4.015625 -0.984375 L 4.5 -2.4375 L 6.78125 -8.25 L 7.953125 -8.25 Z M 4.578125 0 "/>
</g>
<g id="glyph-0-21">
<path d="M 0.8125 0 L 0.8125 -8.703125 L 1.859375 -8.703125 L 1.859375 0 Z M 0.8125 0 "/>
</g>
<g id="glyph-1-0">
<path d="M -4.125 -6.203125 C -2.75 -6.203125 -1.695312 -5.957031 -0.96875 -5.46875 C -0.238281 -4.988281 0.125 -4.273438 0.125 -3.328125 C 0.125 -2.378906 -0.234375 -1.664062 -0.953125 -1.1875 C -1.679688 -0.707031 -2.738281 -0.46875 -4.125 -0.46875 C -5.550781 -0.46875 -6.613281 -0.695312 -7.3125 -1.15625 C -8.019531 -1.625 -8.375 -2.359375 -8.375 -3.359375 C -8.375 -4.328125 -8.015625 -5.039062 -7.296875 -5.5 C -6.585938 -5.96875 -5.53125 -6.203125 -4.125 -6.203125 Z M -4.125 -5.140625 C -5.320312 -5.140625 -6.1875 -5 -6.71875 -4.71875 C -7.257812 -4.445312 -7.53125 -3.992188 -7.53125 -3.359375 C -7.53125 -2.710938 -7.265625 -2.242188 -6.734375 -1.953125 C -6.203125 -1.671875 -5.332031 -1.53125 -4.125 -1.53125 C -2.957031 -1.53125 -2.101562 -1.671875 -1.5625 -1.953125 C -1.019531 -2.242188 -0.75 -2.703125 -0.75 -3.328125 C -0.75 -3.953125 -1.023438 -4.410156 -1.578125 -4.703125 C -2.128906 -4.992188 -2.976562 -5.140625 -4.125 -5.140625 Z M -4.125 -5.140625 "/>
</g>
<g id="glyph-1-1">
<path d="M 0 -1.09375 L -1.28125 -1.09375 L -1.28125 -2.234375 L 0 -2.234375 Z M 0 -1.09375 "/>
</g>
<g id="glyph-1-2">
<path d="M -2.296875 -6.15625 C -1.535156 -6.15625 -0.941406 -5.910156 -0.515625 -5.421875 C -0.0859375 -4.941406 0.125 -4.25 0.125 -3.34375 C 0.125 -2.457031 -0.0820312 -1.765625 -0.5 -1.265625 C -0.925781 -0.765625 -1.523438 -0.515625 -2.296875 -0.515625 C -2.828125 -0.515625 -3.273438 -0.671875 -3.640625 -0.984375 C -4.015625 -1.296875 -4.238281 -1.691406 -4.3125 -2.171875 L -4.34375 -2.171875 C -4.445312 -1.722656 -4.675781 -1.367188 -5.03125 -1.109375 C -5.382812 -0.847656 -5.796875 -0.71875 -6.265625 -0.71875 C -6.890625 -0.71875 -7.394531 -0.953125 -7.78125 -1.421875 C -8.175781 -1.890625 -8.375 -2.519531 -8.375 -3.3125 C -8.375 -4.125 -8.179688 -4.765625 -7.796875 -5.234375 C -7.421875 -5.710938 -6.90625 -5.953125 -6.25 -5.953125 C -5.78125 -5.953125 -5.367188 -5.816406 -5.015625 -5.546875 C -4.660156 -5.285156 -4.441406 -4.929688 -4.359375 -4.484375 L -4.328125 -4.484375 C -4.242188 -5.015625 -4.019531 -5.425781 -3.65625 -5.71875 C -3.300781 -6.007812 -2.847656 -6.15625 -2.296875 -6.15625 Z M -6.1875 -4.859375 C -7.125 -4.859375 -7.59375 -4.34375 -7.59375 -3.3125 C -7.59375 -2.820312 -7.472656 -2.445312 -7.234375 -2.1875 C -7.003906 -1.925781 -6.65625 -1.796875 -6.1875 -1.796875 C -5.71875 -1.796875 -5.359375 -1.925781 -5.109375 -2.1875 C -4.859375 -2.457031 -4.734375 -2.835938 -4.734375 -3.328125 C -4.734375 -3.828125 -4.847656 -4.207031 -5.078125 -4.46875 C -5.304688 -4.726562 -5.675781 -4.859375 -6.1875 -4.859375 Z M -2.40625 -5.0625 C -2.914062 -5.0625 -3.300781 -4.90625 -3.5625 -4.59375 C -3.820312 -4.289062 -3.953125 -3.863281 -3.953125 -3.3125 C -3.953125 -2.78125 -3.8125 -2.363281 -3.53125 -2.0625 C -3.25 -1.757812 -2.863281 -1.609375 -2.375 -1.609375 C -1.238281 -1.609375 -0.671875 -2.191406 -0.671875 -3.359375 C -0.671875 -3.929688 -0.804688 -4.359375 -1.078125 -4.640625 C -1.359375 -4.921875 -1.800781 -5.0625 -2.40625 -5.0625 Z M -2.40625 -5.0625 "/>
</g>
<g id="glyph-1-3">
<path d="M -2.6875 -6.171875 C -1.820312 -6.171875 -1.132812 -5.910156 -0.625 -5.390625 C -0.125 -4.878906 0.125 -4.160156 0.125 -3.234375 C 0.125 -2.472656 -0.0390625 -1.851562 -0.375 -1.375 C -0.71875 -0.90625 -1.207031 -0.609375 -1.84375 -0.484375 L -1.96875 -1.546875 C -1.15625 -1.765625 -0.75 -2.335938 -0.75 -3.265625 C -0.75 -3.828125 -0.914062 -4.269531 -1.25 -4.59375 C -1.59375 -4.914062 -2.066406 -5.078125 -2.671875 -5.078125 C -3.191406 -5.078125 -3.609375 -4.914062 -3.921875 -4.59375 C -4.242188 -4.269531 -4.40625 -3.832031 -4.40625 -3.28125 C -4.40625 -3 -4.359375 -2.734375 -4.265625 -2.484375 C -4.179688 -2.242188 -4.03125 -2 -3.8125 -1.75 L -3.8125 -0.71875 L -8.25 -1 L -8.25 -5.6875 L -7.359375 -5.6875 L -7.359375 -1.953125 L -4.734375 -1.796875 C -5.085938 -2.253906 -5.265625 -2.820312 -5.265625 -3.5 C -5.265625 -4.3125 -5.023438 -4.957031 -4.546875 -5.4375 C -4.078125 -5.925781 -3.457031 -6.171875 -2.6875 -6.171875 Z M -2.6875 -6.171875 "/>
</g>
<g id="glyph-1-4">
<path d="M -4.296875 -6.109375 C -2.878906 -6.109375 -1.785156 -5.847656 -1.015625 -5.328125 C -0.253906 -4.804688 0.125 -4.070312 0.125 -3.125 C 0.125 -2.476562 -0.0078125 -1.957031 -0.28125 -1.5625 C -0.5625 -1.175781 -1.003906 -0.898438 -1.609375 -0.734375 L -1.765625 -1.734375 C -1.078125 -1.953125 -0.734375 -2.421875 -0.734375 -3.140625 C -0.734375 -3.742188 -1.015625 -4.210938 -1.578125 -4.546875 C -2.140625 -4.878906 -2.941406 -5.050781 -3.984375 -5.0625 C -3.628906 -4.90625 -3.34375 -4.632812 -3.125 -4.25 C -2.914062 -3.875 -2.8125 -3.460938 -2.8125 -3.015625 C -2.8125 -2.273438 -3.066406 -1.679688 -3.578125 -1.234375 C -4.085938 -0.785156 -4.765625 -0.5625 -5.609375 -0.5625 C -6.460938 -0.5625 -7.132812 -0.800781 -7.625 -1.28125 C -8.125 -1.769531 -8.375 -2.445312 -8.375 -3.3125 C -8.375 -4.226562 -8.035156 -4.921875 -7.359375 -5.390625 C -6.679688 -5.867188 -5.660156 -6.109375 -4.296875 -6.109375 Z M -5.3125 -4.953125 C -5.976562 -4.953125 -6.515625 -4.800781 -6.921875 -4.5 C -7.328125 -4.195312 -7.53125 -3.789062 -7.53125 -3.28125 C -7.53125 -2.769531 -7.351562 -2.367188 -7 -2.078125 C -6.65625 -1.785156 -6.191406 -1.640625 -5.609375 -1.640625 C -5.003906 -1.640625 -4.523438 -1.785156 -4.171875 -2.078125 C -3.828125 -2.367188 -3.65625 -2.765625 -3.65625 -3.265625 C -3.65625 -3.566406 -3.722656 -3.847656 -3.859375 -4.109375 C -3.992188 -4.367188 -4.1875 -4.570312 -4.4375 -4.71875 C -4.695312 -4.875 -4.988281 -4.953125 -5.3125 -4.953125 Z M -5.3125 -4.953125 "/>
</g>
<g id="glyph-1-5">
<path d="M 0 -0.921875 L -0.890625 -0.921875 L -0.890625 -3.015625 L -7.25 -3.015625 L -5.921875 -1.15625 L -6.921875 -1.15625 L -8.25 -3.109375 L -8.25 -4.078125 L -0.890625 -4.078125 L -0.890625 -6.09375 L 0 -6.09375 Z M 0 -0.921875 "/>
</g>
<g id="glyph-1-6">
<path d="M 0 -6.84375 L -2.421875 -5.890625 L -2.421875 -2.140625 L 0 -1.1875 L 0 -0.03125 L -8.25 -3.390625 L -8.25 -4.671875 L 0 -7.984375 Z M -7.40625 -4.015625 L -7.25 -3.96875 C -6.925781 -3.863281 -6.507812 -3.71875 -6 -3.53125 L -3.28125 -2.46875 L -3.28125 -5.5625 L -6.015625 -4.5 C -6.285156 -4.394531 -6.585938 -4.285156 -6.921875 -4.171875 Z M -7.40625 -4.015625 "/>
</g>
<g id="glyph-1-7">
<path d="M 0.125 -4.28125 C 0.125 -3.601562 0 -3.015625 -0.25 -2.515625 C -0.5 -2.015625 -0.859375 -1.625 -1.328125 -1.34375 C -1.796875 -1.0625 -2.351562 -0.921875 -3 -0.921875 L -8.25 -0.921875 L -8.25 -2.046875 L -3.09375 -2.046875 C -2.34375 -2.046875 -1.769531 -2.234375 -1.375 -2.609375 C -0.988281 -2.992188 -0.796875 -3.550781 -0.796875 -4.28125 C -0.796875 -5.019531 -0.992188 -5.59375 -1.390625 -6 C -1.796875 -6.414062 -2.390625 -6.625 -3.171875 -6.625 L -8.25 -6.625 L -8.25 -7.734375 L -3.109375 -7.734375 C -2.441406 -7.734375 -1.863281 -7.59375 -1.375 -7.3125 C -0.894531 -7.03125 -0.523438 -6.628906 -0.265625 -6.109375 C -0.00390625 -5.597656 0.125 -4.988281 0.125 -4.28125 Z M 0.125 -4.28125 "/>
</g>
<g id="glyph-1-8">
<path d="M -7.46875 -4.640625 C -7.46875 -3.722656 -7.171875 -3.007812 -6.578125 -2.5 C -5.992188 -2 -5.191406 -1.75 -4.171875 -1.75 C -3.160156 -1.75 -2.34375 -2.007812 -1.71875 -2.53125 C -1.101562 -3.0625 -0.796875 -3.78125 -0.796875 -4.6875 C -0.796875 -5.84375 -1.367188 -6.710938 -2.515625 -7.296875 L -2.0625 -8.203125 C -1.351562 -7.867188 -0.8125 -7.394531 -0.4375 -6.78125 C -0.0625 -6.164062 0.125 -5.453125 0.125 -4.640625 C 0.125 -3.804688 -0.046875 -3.082031 -0.390625 -2.46875 C -0.742188 -1.863281 -1.238281 -1.398438 -1.875 -1.078125 C -2.519531 -0.765625 -3.285156 -0.609375 -4.171875 -0.609375 C -5.484375 -0.609375 -6.507812 -0.960938 -7.25 -1.671875 C -8 -2.390625 -8.375 -3.375 -8.375 -4.625 C -8.375 -5.507812 -8.203125 -6.242188 -7.859375 -6.828125 C -7.515625 -7.421875 -7.003906 -7.859375 -6.328125 -8.140625 L -5.984375 -7.078125 C -6.460938 -6.878906 -6.828125 -6.566406 -7.078125 -6.140625 C -7.335938 -5.722656 -7.46875 -5.222656 -7.46875 -4.640625 Z M -7.46875 -4.640625 "/>
</g>
<g id="glyph-2-0">
<path d="M 7.296875 0 L 4.8125 -3.953125 L 2.328125 0 L 0.125 0 L 3.5625 -5.21875 L 0.421875 -9.90625 L 2.609375 -9.90625 L 4.8125 -6.40625 L 7.015625 -9.90625 L 9.1875 -9.90625 L 6.1875 -5.21875 L 9.484375 0 Z M 7.296875 0 "/>
</g>
<g id="glyph-2-1">
<path d="M 5.671875 -1.484375 C 6.210938 -1.484375 6.734375 -1.5625 7.234375 -1.71875 C 7.742188 -1.875 8.132812 -2.078125 8.40625 -2.328125 L 8.40625 -3.6875 L 6 -3.6875 L 6 -5.21875 L 10.3125 -5.21875 L 10.3125 -1.578125 C 9.789062 -1.046875 9.109375 -0.625 8.265625 -0.3125 C 7.421875 -0.0078125 6.535156 0.140625 5.609375 0.140625 C 3.992188 0.140625 2.753906 -0.304688 1.890625 -1.203125 C 1.023438 -2.097656 0.59375 -3.363281 0.59375 -5 C 0.59375 -6.632812 1.023438 -7.882812 1.890625 -8.75 C 2.765625 -9.625 4.019531 -10.0625 5.65625 -10.0625 C 7.988281 -10.0625 9.46875 -9.203125 10.09375 -7.484375 L 8.1875 -6.90625 C 7.976562 -7.40625 7.65625 -7.78125 7.21875 -8.03125 C 6.78125 -8.289062 6.257812 -8.421875 5.65625 -8.421875 C 4.6875 -8.421875 3.945312 -8.125 3.4375 -7.53125 C 2.9375 -6.945312 2.6875 -6.101562 2.6875 -5 C 2.6875 -3.875 2.945312 -3.003906 3.46875 -2.390625 C 3.988281 -1.785156 4.722656 -1.484375 5.671875 -1.484375 Z M 5.671875 -1.484375 "/>
</g>
<g id="glyph-2-2">
<path d="M 9.75 -2.828125 C 9.75 -1.929688 9.410156 -1.234375 8.734375 -0.734375 C 8.054688 -0.242188 7.117188 0 5.921875 0 L 0.96875 0 L 0.96875 -9.90625 L 5.5 -9.90625 C 6.707031 -9.90625 7.625 -9.695312 8.25 -9.28125 C 8.875 -8.863281 9.1875 -8.242188 9.1875 -7.421875 C 9.1875 -6.859375 9.03125 -6.382812 8.71875 -6 C 8.40625 -5.613281 7.925781 -5.351562 7.28125 -5.21875 C 8.082031 -5.125 8.691406 -4.867188 9.109375 -4.453125 C 9.535156 -4.046875 9.75 -3.503906 9.75 -2.828125 Z M 7.09375 -7.140625 C 7.09375 -7.585938 6.945312 -7.90625 6.65625 -8.09375 C 6.375 -8.28125 5.957031 -8.375 5.40625 -8.375 L 3.03125 -8.375 L 3.03125 -5.921875 L 5.421875 -5.921875 C 6.003906 -5.921875 6.425781 -6.019531 6.6875 -6.21875 C 6.957031 -6.425781 7.09375 -6.734375 7.09375 -7.140625 Z M 7.671875 -2.984375 C 7.671875 -3.910156 7.003906 -4.375 5.671875 -4.375 L 3.03125 -4.375 L 3.03125 -1.546875 L 5.75 -1.546875 C 6.414062 -1.546875 6.898438 -1.664062 7.203125 -1.90625 C 7.515625 -2.144531 7.671875 -2.503906 7.671875 -2.984375 Z M 7.671875 -2.984375 "/>
</g>
<g id="glyph-2-3">
<path d="M 8.234375 -3.8125 C 8.234375 -2.582031 7.890625 -1.613281 7.203125 -0.90625 C 6.523438 -0.207031 5.582031 0.140625 4.375 0.140625 C 3.1875 0.140625 2.253906 -0.207031 1.578125 -0.90625 C 0.898438 -1.613281 0.5625 -2.582031 0.5625 -3.8125 C 0.5625 -5.039062 0.898438 -6.003906 1.578125 -6.703125 C 2.253906 -7.398438 3.195312 -7.75 4.40625 -7.75 C 5.65625 -7.75 6.601562 -7.410156 7.25 -6.734375 C 7.90625 -6.054688 8.234375 -5.082031 8.234375 -3.8125 Z M 6.171875 -3.8125 C 6.171875 -4.71875 6.019531 -5.375 5.71875 -5.78125 C 5.425781 -6.1875 5 -6.390625 4.4375 -6.390625 C 3.238281 -6.390625 2.640625 -5.53125 2.640625 -3.8125 C 2.640625 -2.96875 2.785156 -2.320312 3.078125 -1.875 C 3.367188 -1.425781 3.789062 -1.203125 4.34375 -1.203125 C 5.5625 -1.203125 6.171875 -2.070312 6.171875 -3.8125 Z M 6.171875 -3.8125 "/>
</g>
<g id="glyph-2-4">
<path d="M 7.421875 -2.21875 C 7.421875 -1.488281 7.117188 -0.910156 6.515625 -0.484375 C 5.910156 -0.0664062 5.078125 0.140625 4.015625 0.140625 C 2.972656 0.140625 2.171875 -0.0195312 1.609375 -0.34375 C 1.054688 -0.675781 0.6875 -1.195312 0.5 -1.90625 L 2.25 -2.15625 C 2.34375 -1.800781 2.507812 -1.546875 2.75 -1.390625 C 2.988281 -1.242188 3.410156 -1.171875 4.015625 -1.171875 C 4.566406 -1.171875 4.96875 -1.238281 5.21875 -1.375 C 5.476562 -1.519531 5.609375 -1.742188 5.609375 -2.046875 C 5.609375 -2.285156 5.503906 -2.472656 5.296875 -2.609375 C 5.097656 -2.753906 4.753906 -2.878906 4.265625 -2.984375 C 3.148438 -3.203125 2.394531 -3.40625 2 -3.59375 C 1.613281 -3.789062 1.316406 -4.039062 1.109375 -4.34375 C 0.910156 -4.644531 0.8125 -5.015625 0.8125 -5.453125 C 0.8125 -6.179688 1.085938 -6.75 1.640625 -7.15625 C 2.203125 -7.5625 3 -7.765625 4.03125 -7.765625 C 4.9375 -7.765625 5.664062 -7.585938 6.21875 -7.234375 C 6.769531 -6.878906 7.113281 -6.367188 7.25 -5.703125 L 5.5 -5.515625 C 5.4375 -5.828125 5.296875 -6.054688 5.078125 -6.203125 C 4.859375 -6.359375 4.507812 -6.4375 4.03125 -6.4375 C 3.5625 -6.4375 3.207031 -6.375 2.96875 -6.25 C 2.738281 -6.132812 2.625 -5.9375 2.625 -5.65625 C 2.625 -5.4375 2.710938 -5.257812 2.890625 -5.125 C 3.078125 -5 3.382812 -4.894531 3.8125 -4.8125 C 4.40625 -4.695312 4.929688 -4.570312 5.390625 -4.4375 C 5.847656 -4.3125 6.21875 -4.160156 6.5 -3.984375 C 6.78125 -3.804688 7.003906 -3.578125 7.171875 -3.296875 C 7.335938 -3.015625 7.421875 -2.65625 7.421875 -2.21875 Z M 7.421875 -2.21875 "/>
</g>
<g id="glyph-2-5">
<path d="M 2.953125 0.125 C 2.367188 0.125 1.921875 -0.03125 1.609375 -0.34375 C 1.296875 -0.664062 1.140625 -1.144531 1.140625 -1.78125 L 1.140625 -6.28125 L 0.171875 -6.28125 L 0.171875 -7.609375 L 1.234375 -7.609375 L 1.859375 -9.390625 L 3.09375 -9.390625 L 3.09375 -7.609375 L 4.53125 -7.609375 L 4.53125 -6.28125 L 3.09375 -6.28125 L 3.09375 -2.328125 C 3.09375 -1.953125 3.160156 -1.675781 3.296875 -1.5 C 3.441406 -1.320312 3.660156 -1.234375 3.953125 -1.234375 C 4.109375 -1.234375 4.332031 -1.269531 4.625 -1.34375 L 4.625 -0.109375 C 4.132812 0.046875 3.578125 0.125 2.953125 0.125 Z M 2.953125 0.125 "/>
</g>
<g id="glyph-2-6">
</g>
<g id="glyph-2-7">
<path d="M 9.234375 0 L 7.140625 0 L 5.9375 -4.640625 C 5.882812 -4.847656 5.773438 -5.367188 5.609375 -6.203125 L 5.234375 -4.625 L 4.015625 0 L 1.921875 0 L -0.046875 -7.609375 L 1.8125 -7.609375 L 3.0625 -1.796875 L 3.171875 -2.3125 L 3.34375 -3.140625 L 4.53125 -7.609375 L 6.65625 -7.609375 L 7.828125 -3.140625 C 7.890625 -2.890625 7.984375 -2.441406 8.109375 -1.796875 L 8.3125 -2.71875 L 9.40625 -7.609375 L 11.234375 -7.609375 Z M 9.234375 0 "/>
</g>
<g id="glyph-2-8">
<path d="M 1 -8.984375 L 1 -10.4375 L 2.984375 -10.4375 L 2.984375 -8.984375 Z M 1 0 L 1 -7.609375 L 2.984375 -7.609375 L 2.984375 0 Z M 1 0 "/>
</g>
<g id="glyph-2-9">
<path d="M 2.953125 -6.09375 C 3.222656 -6.675781 3.554688 -7.097656 3.953125 -7.359375 C 4.359375 -7.617188 4.84375 -7.75 5.40625 -7.75 C 6.207031 -7.75 6.820312 -7.5 7.25 -7 C 7.6875 -6.507812 7.90625 -5.785156 7.90625 -4.828125 L 7.90625 0 L 5.9375 0 L 5.9375 -4.265625 C 5.9375 -5.597656 5.484375 -6.265625 4.578125 -6.265625 C 4.097656 -6.265625 3.710938 -6.054688 3.421875 -5.640625 C 3.128906 -5.234375 2.984375 -4.710938 2.984375 -4.078125 L 2.984375 0 L 1 0 L 1 -10.4375 L 2.984375 -10.4375 L 2.984375 -7.59375 C 2.984375 -7.082031 2.960938 -6.582031 2.921875 -6.09375 Z M 2.953125 -6.09375 "/>
</g>
<g id="glyph-2-10">
<path d="M 4.125 0.140625 C 2.976562 0.140625 2.097656 -0.195312 1.484375 -0.875 C 0.867188 -1.550781 0.5625 -2.539062 0.5625 -3.84375 C 0.5625 -5.09375 0.875 -6.054688 1.5 -6.734375 C 2.125 -7.410156 3.007812 -7.75 4.15625 -7.75 C 5.25 -7.75 6.082031 -7.382812 6.65625 -6.65625 C 7.226562 -5.9375 7.515625 -4.878906 7.515625 -3.484375 L 7.515625 -3.421875 L 2.640625 -3.421875 C 2.640625 -2.679688 2.773438 -2.125 3.046875 -1.75 C 3.316406 -1.375 3.707031 -1.1875 4.21875 -1.1875 C 4.914062 -1.1875 5.359375 -1.488281 5.546875 -2.09375 L 7.40625 -1.921875 C 6.863281 -0.546875 5.769531 0.140625 4.125 0.140625 Z M 4.125 -6.5 C 3.65625 -6.5 3.296875 -6.335938 3.046875 -6.015625 C 2.796875 -5.691406 2.664062 -5.238281 2.65625 -4.65625 L 5.609375 -4.65625 C 5.566406 -5.269531 5.414062 -5.726562 5.15625 -6.03125 C 4.90625 -6.34375 4.5625 -6.5 4.125 -6.5 Z M 4.125 -6.5 "/>
</g>
<g id="glyph-2-11">
<path d="M 2.765625 0.140625 C 2.023438 0.140625 1.445312 -0.0546875 1.03125 -0.453125 C 0.625 -0.859375 0.421875 -1.425781 0.421875 -2.15625 C 0.421875 -2.9375 0.675781 -3.535156 1.1875 -3.953125 C 1.707031 -4.367188 2.453125 -4.582031 3.421875 -4.59375 L 5.0625 -4.609375 L 5.0625 -5 C 5.0625 -5.5 4.972656 -5.867188 4.796875 -6.109375 C 4.628906 -6.347656 4.347656 -6.46875 3.953125 -6.46875 C 3.585938 -6.46875 3.316406 -6.382812 3.140625 -6.21875 C 2.972656 -6.050781 2.867188 -5.773438 2.828125 -5.390625 L 0.765625 -5.5 C 0.890625 -6.238281 1.226562 -6.796875 1.78125 -7.171875 C 2.332031 -7.554688 3.082031 -7.75 4.03125 -7.75 C 5 -7.75 5.742188 -7.507812 6.265625 -7.03125 C 6.785156 -6.5625 7.046875 -5.890625 7.046875 -5.015625 L 7.046875 -2.25 C 7.046875 -1.820312 7.09375 -1.523438 7.1875 -1.359375 C 7.28125 -1.203125 7.441406 -1.125 7.671875 -1.125 C 7.816406 -1.125 7.960938 -1.140625 8.109375 -1.171875 L 8.109375 -0.09375 C 7.984375 -0.0703125 7.875 -0.046875 7.78125 -0.015625 C 7.6875 0.00390625 7.59375 0.0195312 7.5 0.03125 C 7.40625 0.0507812 7.304688 0.0625 7.203125 0.0625 C 7.097656 0.0703125 6.976562 0.078125 6.84375 0.078125 C 6.34375 0.078125 5.972656 -0.0390625 5.734375 -0.28125 C 5.492188 -0.519531 5.351562 -0.878906 5.3125 -1.359375 L 5.265625 -1.359375 C 4.710938 -0.359375 3.878906 0.140625 2.765625 0.140625 Z M 5.0625 -3.53125 L 4.046875 -3.515625 C 3.585938 -3.492188 3.257812 -3.441406 3.0625 -3.359375 C 2.875 -3.273438 2.726562 -3.148438 2.625 -2.984375 C 2.53125 -2.816406 2.484375 -2.59375 2.484375 -2.3125 C 2.484375 -1.945312 2.566406 -1.675781 2.734375 -1.5 C 2.898438 -1.320312 3.117188 -1.234375 3.390625 -1.234375 C 3.703125 -1.234375 3.984375 -1.316406 4.234375 -1.484375 C 4.492188 -1.660156 4.695312 -1.894531 4.84375 -2.1875 C 4.988281 -2.488281 5.0625 -2.804688 5.0625 -3.140625 Z M 5.0625 -3.53125 "/>
</g>
<g id="glyph-2-12">
<path d="M 1 0 L 1 -5.828125 C 1 -6.242188 0.992188 -6.585938 0.984375 -6.859375 C 0.972656 -7.140625 0.960938 -7.390625 0.953125 -7.609375 L 2.828125 -7.609375 C 2.847656 -7.523438 2.867188 -7.269531 2.890625 -6.84375 C 2.910156 -6.414062 2.921875 -6.128906 2.921875 -5.984375 L 2.953125 -5.984375 C 3.148438 -6.515625 3.320312 -6.890625 3.46875 -7.109375 C 3.613281 -7.328125 3.789062 -7.488281 4 -7.59375 C 4.207031 -7.707031 4.46875 -7.765625 4.78125 -7.765625 C 5.03125 -7.765625 5.234375 -7.726562 5.390625 -7.65625 L 5.390625 -6 C 5.066406 -6.070312 4.785156 -6.109375 4.546875 -6.109375 C 4.054688 -6.109375 3.671875 -5.90625 3.390625 -5.5 C 3.117188 -5.101562 2.984375 -4.515625 2.984375 -3.734375 L 2.984375 0 Z M 1 0 "/>
</g>
<g id="glyph-2-13">
<path d="M 1 0 L 1 -10.4375 L 2.984375 -10.4375 L 2.984375 0 Z M 1 0 "/>
</g>
<g id="glyph-2-14">
<path d="M 1.984375 2.984375 C 1.515625 2.984375 1.101562 2.953125 0.75 2.890625 L 0.75 1.484375 C 1 1.523438 1.222656 1.546875 1.421875 1.546875 C 1.703125 1.546875 1.9375 1.5 2.125 1.40625 C 2.3125 1.320312 2.476562 1.175781 2.625 0.96875 C 2.769531 0.757812 2.9375 0.410156 3.125 -0.078125 L 0.109375 -7.609375 L 2.203125 -7.609375 L 3.390625 -4.046875 C 3.578125 -3.535156 3.816406 -2.75 4.109375 -1.6875 L 4.28125 -2.359375 L 4.734375 -4.015625 L 5.859375 -7.609375 L 7.9375 -7.609375 L 4.921875 0.40625 C 4.515625 1.375 4.09375 2.046875 3.65625 2.421875 C 3.226562 2.796875 2.671875 2.984375 1.984375 2.984375 Z M 1.984375 2.984375 "/>
</g>
<g id="glyph-2-15">
<path d="M 8.203125 -3.84375 C 8.203125 -2.570312 7.945312 -1.585938 7.4375 -0.890625 C 6.9375 -0.203125 6.222656 0.140625 5.296875 0.140625 C 4.753906 0.140625 4.285156 0.0234375 3.890625 -0.203125 C 3.492188 -0.441406 3.191406 -0.773438 2.984375 -1.203125 L 2.9375 -1.203125 C 2.96875 -1.066406 2.984375 -0.640625 2.984375 0.078125 L 2.984375 2.984375 L 1 2.984375 L 1 -5.859375 C 1 -6.578125 0.984375 -7.160156 0.953125 -7.609375 L 2.875 -7.609375 C 2.894531 -7.523438 2.910156 -7.359375 2.921875 -7.109375 C 2.941406 -6.859375 2.953125 -6.613281 2.953125 -6.375 L 2.984375 -6.375 C 3.429688 -7.300781 4.242188 -7.765625 5.421875 -7.765625 C 6.304688 -7.765625 6.988281 -7.421875 7.46875 -6.734375 C 7.957031 -6.054688 8.203125 -5.09375 8.203125 -3.84375 Z M 6.140625 -3.84375 C 6.140625 -5.550781 5.617188 -6.40625 4.578125 -6.40625 C 4.054688 -6.40625 3.65625 -6.171875 3.375 -5.703125 C 3.09375 -5.242188 2.953125 -4.601562 2.953125 -3.78125 C 2.953125 -2.957031 3.09375 -2.320312 3.375 -1.875 C 3.65625 -1.425781 4.050781 -1.203125 4.5625 -1.203125 C 5.613281 -1.203125 6.140625 -2.082031 6.140625 -3.84375 Z M 6.140625 -3.84375 "/>
</g>
<g id="glyph-2-16">
<path d="M 5.9375 0 L 5.9375 -4.265625 C 5.9375 -5.609375 5.484375 -6.28125 4.578125 -6.28125 C 4.097656 -6.28125 3.710938 -6.070312 3.421875 -5.65625 C 3.128906 -5.25 2.984375 -4.722656 2.984375 -4.078125 L 2.984375 0 L 1 0 L 1 -5.90625 C 1 -6.3125 0.992188 -6.644531 0.984375 -6.90625 C 0.972656 -7.164062 0.960938 -7.398438 0.953125 -7.609375 L 2.828125 -7.609375 C 2.847656 -7.523438 2.867188 -7.285156 2.890625 -6.890625 C 2.910156 -6.503906 2.921875 -6.238281 2.921875 -6.09375 L 2.953125 -6.09375 C 3.222656 -6.675781 3.554688 -7.097656 3.953125 -7.359375 C 4.359375 -7.628906 4.84375 -7.765625 5.40625 -7.765625 C 6.207031 -7.765625 6.820312 -7.515625 7.25 -7.015625 C 7.6875 -6.515625 7.90625 -5.785156 7.90625 -4.828125 L 7.90625 0 Z M 5.9375 0 "/>
</g>
<g id="glyph-2-17">
<path d="M 4.1875 3.046875 C 3.257812 3.046875 2.515625 2.867188 1.953125 2.515625 C 1.390625 2.160156 1.039062 1.65625 0.90625 1 L 2.890625 0.78125 C 2.953125 1.082031 3.097656 1.316406 3.328125 1.484375 C 3.566406 1.660156 3.875 1.75 4.25 1.75 C 4.800781 1.75 5.203125 1.578125 5.453125 1.234375 C 5.703125 0.898438 5.828125 0.398438 5.828125 -0.265625 L 5.828125 -0.65625 L 5.84375 -1.40625 L 5.828125 -1.40625 C 5.390625 -0.476562 4.578125 -0.015625 3.390625 -0.015625 C 2.492188 -0.015625 1.800781 -0.347656 1.3125 -1.015625 C 0.832031 -1.679688 0.59375 -2.632812 0.59375 -3.875 C 0.59375 -5.113281 0.84375 -6.070312 1.34375 -6.75 C 1.84375 -7.425781 2.570312 -7.765625 3.53125 -7.765625 C 4.632812 -7.765625 5.398438 -7.304688 5.828125 -6.390625 L 5.859375 -6.390625 C 5.859375 -6.554688 5.867188 -6.78125 5.890625 -7.0625 C 5.921875 -7.34375 5.945312 -7.523438 5.96875 -7.609375 L 7.84375 -7.609375 C 7.8125 -7.097656 7.796875 -6.515625 7.796875 -5.859375 L 7.796875 -0.234375 C 7.796875 0.847656 7.488281 1.664062 6.875 2.21875 C 6.257812 2.769531 5.363281 3.046875 4.1875 3.046875 Z M 5.84375 -3.90625 C 5.84375 -4.6875 5.703125 -5.296875 5.421875 -5.734375 C 5.148438 -6.179688 4.753906 -6.40625 4.234375 -6.40625 C 3.179688 -6.40625 2.65625 -5.5625 2.65625 -3.875 C 2.65625 -2.21875 3.175781 -1.390625 4.21875 -1.390625 C 4.75 -1.390625 5.148438 -1.609375 5.421875 -2.046875 C 5.703125 -2.484375 5.84375 -3.101562 5.84375 -3.90625 Z M 5.84375 -3.90625 "/>
</g>
</g>
</defs>
<rect x="-50.4" y="-36" width="604.8" height="432" fill="rgb(100%, 100%, 100%)" fill-opacity="1"/>
<path fill="none" stroke-width="1.5" stroke-linecap="round" stroke-linejoin="round" stroke="rgb(0%, 0%, 0%)" stroke-opacity="1" stroke-miterlimit="10" d="M 74.398438 134.257812 L 93.601562 104.554688 L 112.800781 94.179688 L 132 90.988281 L 151.199219 87.117188 L 170.398438 82.019531 L 189.601562 76.566406 L 208.800781 75.148438 L 228 72.792969 L 247.199219 70.828125 L 266.398438 70.296875 L 285.601562 69.804688 L 304.800781 69.410156 L 324 68.980469 L 343.199219 68.84375 L 362.398438 68.644531 L 381.601562 67.839844 L 400.800781 67.800781 L 420 67.703125 L 439.199219 67.507812 L 458.398438 67.464844 "/>
<path fill="none" stroke-width="0.75" stroke-linecap="round" stroke-linejoin="round" stroke="rgb(0%, 0%, 0%)" stroke-opacity="1" stroke-miterlimit="10" d="M 151.199219 286.558594 L 439.199219 286.558594 "/>
<path fill="none" stroke-width="0.75" stroke-linecap="round" stroke-linejoin="round" stroke="rgb(0%, 0%, 0%)" stroke-opacity="1" stroke-miterlimit="10" d="M 151.199219 286.558594 L 151.199219 293.761719 "/>
<path fill="none" stroke-width="0.75" stroke-linecap="round" stroke-linejoin="round" stroke="rgb(0%, 0%, 0%)" stroke-opacity="1" stroke-miterlimit="10" d="M 247.199219 286.558594 L 247.199219 293.761719 "/>
<path fill="none" stroke-width="0.75" stroke-linecap="round" stroke-linejoin="round" stroke="rgb(0%, 0%, 0%)" stroke-opacity="1" stroke-miterlimit="10" d="M 343.199219 286.558594 L 343.199219 293.761719 "/>
<path fill="none" stroke-width="0.75" stroke-linecap="round" stroke-linejoin="round" stroke="rgb(0%, 0%, 0%)" stroke-opacity="1" stroke-miterlimit="10" d="M 439.199219 286.558594 L 439.199219 293.761719 "/>
<g fill="rgb(0%, 0%, 0%)" fill-opacity="1">
<use xlink:href="#glyph-0-0" x="147.699219" y="312.34375"/>
</g>
<g fill="rgb(0%, 0%, 0%)" fill-opacity="1">
<use xlink:href="#glyph-0-1" x="240.199219" y="312.34375"/>
<use xlink:href="#glyph-0-2" x="247.199219" y="312.34375"/>
</g>
<g fill="rgb(0%, 0%, 0%)" fill-opacity="1">
<use xlink:href="#glyph-0-1" x="336.199219" y="312.34375"/>
<use xlink:href="#glyph-0-0" x="343.199219" y="312.34375"/>
</g>
<g fill="rgb(0%, 0%, 0%)" fill-opacity="1">
<use xlink:href="#glyph-0-3" x="432.199219" y="312.34375"/>
<use xlink:href="#glyph-0-2" x="439.199219" y="312.34375"/>
</g>
<path fill="none" stroke-width="0.75" stroke-linecap="round" stroke-linejoin="round" stroke="rgb(0%, 0%, 0%)" stroke-opacity="1" stroke-miterlimit="10" d="M 59.039062 259.664062 L 59.039062 67.210938 "/>
<path fill="none" stroke-width="0.75" stroke-linecap="round" stroke-linejoin="round" stroke="rgb(0%, 0%, 0%)" stroke-opacity="1" stroke-miterlimit="10" d="M 59.039062 259.664062 L 51.839844 259.664062 "/>
<path fill="none" stroke-width="0.75" stroke-linecap="round" stroke-linejoin="round" stroke="rgb(0%, 0%, 0%)" stroke-opacity="1" stroke-miterlimit="10" d="M 59.039062 211.550781 L 51.839844 211.550781 "/>
<path fill="none" stroke-width="0.75" stroke-linecap="round" stroke-linejoin="round" stroke="rgb(0%, 0%, 0%)" stroke-opacity="1" stroke-miterlimit="10" d="M 59.039062 163.4375 L 51.839844 163.4375 "/>
<path fill="none" stroke-width="0.75" stroke-linecap="round" stroke-linejoin="round" stroke="rgb(0%, 0%, 0%)" stroke-opacity="1" stroke-miterlimit="10" d="M 59.039062 115.324219 L 51.839844 115.324219 "/>
<path fill="none" stroke-width="0.75" stroke-linecap="round" stroke-linejoin="round" stroke="rgb(0%, 0%, 0%)" stroke-opacity="1" stroke-miterlimit="10" d="M 59.039062 67.210938 L 51.839844 67.210938 "/>
<g fill="rgb(0%, 0%, 0%)" fill-opacity="1">
<use xlink:href="#glyph-1-0" x="41.625" y="271.664062"/>
<use xlink:href="#glyph-1-1" x="41.625" y="264.664062"/>
<use xlink:href="#glyph-1-2" x="41.625" y="261.664062"/>
<use xlink:href="#glyph-1-0" x="41.625" y="254.664062"/>
</g>
<g fill="rgb(0%, 0%, 0%)" fill-opacity="1">
<use xlink:href="#glyph-1-0" x="41.625" y="223.550781"/>
<use xlink:href="#glyph-1-1" x="41.625" y="216.550781"/>
<use xlink:href="#glyph-1-2" x="41.625" y="213.550781"/>
<use xlink:href="#glyph-1-3" x="41.625" y="206.550781"/>
</g>
<g fill="rgb(0%, 0%, 0%)" fill-opacity="1">
<use xlink:href="#glyph-1-0" x="41.625" y="175.4375"/>
<use xlink:href="#glyph-1-1" x="41.625" y="168.4375"/>
<use xlink:href="#glyph-1-4" x="41.625" y="165.4375"/>
<use xlink:href="#glyph-1-0" x="41.625" y="158.4375"/>
</g>
<g fill="rgb(0%, 0%, 0%)" fill-opacity="1">
<use xlink:href="#glyph-1-0" x="41.625" y="127.324219"/>
<use xlink:href="#glyph-1-1" x="41.625" y="120.324219"/>
<use xlink:href="#glyph-1-4" x="41.625" y="117.324219"/>
<use xlink:href="#glyph-1-3" x="41.625" y="110.324219"/>
</g>
<g fill="rgb(0%, 0%, 0%)" fill-opacity="1">
<use xlink:href="#glyph-1-5" x="41.625" y="79.210938"/>
<use xlink:href="#glyph-1-1" x="41.625" y="72.210938"/>
<use xlink:href="#glyph-1-0" x="41.625" y="69.210938"/>
<use xlink:href="#glyph-1-0" x="41.625" y="62.210938"/>
</g>
<path fill="none" stroke-width="0.75" stroke-linecap="round" stroke-linejoin="round" stroke="rgb(0%, 0%, 0%)" stroke-opacity="1" stroke-miterlimit="10" d="M 59.039062 286.558594 L 473.761719 286.558594 L 473.761719 59.039062 L 59.039062 59.039062 Z M 59.039062 286.558594 "/>
<g fill="rgb(0%, 0%, 0%)" fill-opacity="1">
<use xlink:href="#glyph-2-0" x="166.898438" y="33.554688"/>
<use xlink:href="#glyph-2-1" x="176.898438" y="33.554688"/>
<use xlink:href="#glyph-2-2" x="187.898438" y="33.554688"/>
<use xlink:href="#glyph-2-3" x="197.898438" y="33.554688"/>
<use xlink:href="#glyph-2-3" x="206.898438" y="33.554688"/>
<use xlink:href="#glyph-2-4" x="215.898438" y="33.554688"/>
<use xlink:href="#glyph-2-5" x="223.898438" y="33.554688"/>
<use xlink:href="#glyph-2-6" x="228.898438" y="33.554688"/>
<use xlink:href="#glyph-2-7" x="232.898438" y="33.554688"/>
<use xlink:href="#glyph-2-8" x="243.898438" y="33.554688"/>
<use xlink:href="#glyph-2-5" x="247.898438" y="33.554688"/>
<use xlink:href="#glyph-2-9" x="252.898438" y="33.554688"/>
<use xlink:href="#glyph-2-6" x="261.898438" y="33.554688"/>
<use xlink:href="#glyph-2-10" x="265.898438" y="33.554688"/>
<use xlink:href="#glyph-2-11" x="273.898438" y="33.554688"/>
<use xlink:href="#glyph-2-12" x="281.898438" y="33.554688"/>
<use xlink:href="#glyph-2-13" x="287.898438" y="33.554688"/>
<use xlink:href="#glyph-2-14" x="291.898438" y="33.554688"/>
<use xlink:href="#glyph-2-6" x="299.898438" y="33.554688"/>
<use xlink:href="#glyph-2-4" x="303.898438" y="33.554688"/>
<use xlink:href="#glyph-2-5" x="311.898438" y="33.554688"/>
<use xlink:href="#glyph-2-3" x="316.898438" y="33.554688"/>
<use xlink:href="#glyph-2-15" x="325.898438" y="33.554688"/>
<use xlink:href="#glyph-2-15" x="334.898438" y="33.554688"/>
<use xlink:href="#glyph-2-8" x="343.898438" y="33.554688"/>
<use xlink:href="#glyph-2-16" x="347.898438" y="33.554688"/>
<use xlink:href="#glyph-2-17" x="356.898438" y="33.554688"/>
</g>
<g fill="rgb(0%, 0%, 0%)" fill-opacity="1">
<use xlink:href="#glyph-0-4" x="224.898438" y="341.144531"/>
<use xlink:href="#glyph-0-5" x="232.898438" y="341.144531"/>
<use xlink:href="#glyph-0-5" x="239.898438" y="341.144531"/>
<use xlink:href="#glyph-0-6" x="246.898438" y="341.144531"/>
<use xlink:href="#glyph-0-7" x="252.898438" y="341.144531"/>
<use xlink:href="#glyph-0-8" x="255.898438" y="341.144531"/>
<use xlink:href="#glyph-0-9" x="258.898438" y="341.144531"/>
<use xlink:href="#glyph-0-10" x="265.898438" y="341.144531"/>
<use xlink:href="#glyph-0-11" x="272.898438" y="341.144531"/>
<use xlink:href="#glyph-0-12" x="275.898438" y="341.144531"/>
<use xlink:href="#glyph-0-5" x="279.898438" y="341.144531"/>
<use xlink:href="#glyph-0-13" x="286.898438" y="341.144531"/>
<use xlink:href="#glyph-0-9" x="293.898438" y="341.144531"/>
<use xlink:href="#glyph-0-14" x="300.898438" y="341.144531"/>
</g>
<g fill="rgb(0%, 0%, 0%)" fill-opacity="1">
<use xlink:href="#glyph-1-6" x="12.824219" y="185.800781"/>
<use xlink:href="#glyph-1-7" x="12.824219" y="177.800781"/>
<use xlink:href="#glyph-1-8" x="12.824219" y="168.800781"/>
</g>
<path fill="none" stroke-width="1.5" stroke-linecap="round" stroke-linejoin="round" stroke="rgb(87.45098%, 32.54902%, 41.960784%)" stroke-opacity="1" stroke-miterlimit="10" d="M 74.398438 253.570312 L 93.601562 261.078125 L 112.800781 272.035156 L 132 270.976562 L 151.199219 264.347656 L 170.398438 272.390625 L 189.601562 278.132812 L 208.800781 267.175781 L 228 263.199219 L 247.199219 268.679688 L 266.398438 270.800781 L 285.601562 269.207031 L 304.800781 270.976562 L 324 273.449219 L 343.199219 267.972656 L 362.398438 270.621094 L 381.601562 270.09375 L 400.800781 268.5 L 420 268.5 L 439.199219 272.742188 L 458.398438 269.03125 "/>
<path fill-rule="nonzero" fill="rgb(100%, 100%, 100%)" fill-opacity="1" stroke-width="0.75" stroke-linecap="round" stroke-linejoin="round" stroke="rgb(0%, 0%, 0%)" stroke-opacity="1" stroke-miterlimit="10" d="M 200.601562 151.199219 L 332.203125 151.199219 L 332.203125 194.398438 L 200.601562 194.398438 Z M 200.601562 151.199219 "/>
<path fill="none" stroke-width="1.5" stroke-linecap="round" stroke-linejoin="round" stroke="rgb(0%, 0%, 0%)" stroke-opacity="1" stroke-miterlimit="10" d="M 211.398438 165.601562 L 233 165.601562 "/>
<path fill="none" stroke-width="1.5" stroke-linecap="round" stroke-linejoin="round" stroke="rgb(87.45098%, 32.54902%, 41.960784%)" stroke-opacity="1" stroke-miterlimit="10" d="M 211.398438 180 L 233 180 "/>
<g fill="rgb(0%, 0%, 0%)" fill-opacity="1">
<use xlink:href="#glyph-0-15" x="243.800781" y="169.964844"/>
<use xlink:href="#glyph-0-12" x="250.800781" y="169.964844"/>
<use xlink:href="#glyph-0-16" x="254.800781" y="169.964844"/>
<use xlink:href="#glyph-0-8" x="261.800781" y="169.964844"/>
<use xlink:href="#glyph-0-9" x="264.800781" y="169.964844"/>
<use xlink:href="#glyph-0-11" x="271.800781" y="169.964844"/>
<use xlink:href="#glyph-0-17" x="274.800781" y="169.964844"/>
<use xlink:href="#glyph-0-18" x="282.800781" y="169.964844"/>
<use xlink:href="#glyph-0-19" x="291.800781" y="169.964844"/>
</g>
<g fill="rgb(0%, 0%, 0%)" fill-opacity="1">
<use xlink:href="#glyph-0-20" x="243.800781" y="184.363281"/>
<use xlink:href="#glyph-0-16" x="250.800781" y="184.363281"/>
<use xlink:href="#glyph-0-21" x="257.800781" y="184.363281"/>
<use xlink:href="#glyph-0-8" x="260.800781" y="184.363281"/>
<use xlink:href="#glyph-0-14" x="263.800781" y="184.363281"/>
<use xlink:href="#glyph-0-16" x="270.800781" y="184.363281"/>
<use xlink:href="#glyph-0-7" x="277.800781" y="184.363281"/>
<use xlink:href="#glyph-0-8" x="280.800781" y="184.363281"/>
<use xlink:href="#glyph-0-5" x="283.800781" y="184.363281"/>
<use xlink:href="#glyph-0-9" x="290.800781" y="184.363281"/>
<use xlink:href="#glyph-0-11" x="297.800781" y="184.363281"/>
<use xlink:href="#glyph-0-17" x="300.800781" y="184.363281"/>
<use xlink:href="#glyph-0-18" x="308.800781" y="184.363281"/>
<use xlink:href="#glyph-0-19" x="317.800781" y="184.363281"/>
</g>
</svg>
